<?xml version="1.0" encoding="UTF-8"?>
<svg version="1.1" xmlns="http://www.w3.org/2000/svg" width="1391" height="1391" viewBox="170 90 1050 1050">
<path d="M0 0 C459.03 0 918.06 0 1391 0 C1391 459.03 1391 918.06 1391 1391 C931.97 1391 472.94 1391 0 1391 C0 931.97 0 472.94 0 0 Z " fill="#FEFEFE" transform="translate(0,0)"/>
<path d="M0 0 C1.19367188 0.19464844 2.38734375 0.38929688 3.6171875 0.58984375 C56.47297396 10.19482 102.46140523 40.2429451 133.54296875 83.91015625 C147.34000615 103.86748025 157.40292873 125.69934673 164 149 C164.30550781 150.04027344 164.61101562 151.08054687 164.92578125 152.15234375 C165.72871084 155.08818374 166.38979042 158.01796389 167 161 C167.13535156 161.63760254 167.27070312 162.27520508 167.41015625 162.93212891 C177.92947067 214.33224746 162.45827312 266.53753811 141 313 C140.33739415 314.47344283 139.67586989 315.94737272 139.015625 317.421875 C134.07386374 328.3276114 128.36356213 338.80219991 122.52929688 349.25195312 C121.09342091 351.83212871 119.6779903 354.42253051 118.265625 357.015625 C101.68145429 387.10865795 80.94667634 414.85023067 60 442 C59.48695313 442.66515625 58.97390625 443.3303125 58.4453125 444.015625 C44.64852487 461.85235596 30.11689053 479.09917718 14.9765625 495.80859375 C13.13043439 497.85538796 11.31006716 499.92131557 9.5 502 C6.14381544 505.85110578 2.73125807 509.64934814 -0.69140625 513.44140625 C-2.1811928 515.09252333 -3.66836877 516.74600144 -5.15234375 518.40234375 C-9.50474247 523.25845588 -13.89373592 528.07931164 -18.3125 532.875 C-18.81628174 533.42260986 -19.32006348 533.97021973 -19.83911133 534.53442383 C-21.21943793 536.02910519 -22.60942835 537.51484533 -24 539 C-24.69480469 539.80695312 -25.38960937 540.61390625 -26.10546875 541.4453125 C-26.73066406 541.95835937 -27.35585938 542.47140625 -28 543 C-31.51851075 542.63606313 -33.21399666 541.15168555 -35.64453125 538.68359375 C-36.32193359 538.00103516 -36.99933594 537.31847656 -37.69726562 536.61523438 C-38.74430664 535.53725586 -38.74430664 535.53725586 -39.8125 534.4375 C-40.49892578 533.74591797 -41.18535156 533.05433594 -41.89257812 532.34179688 C-45.89317146 528.28064584 -49.71404761 524.10351774 -53.4387207 519.78881836 C-55.45338981 517.48053368 -57.57353464 515.27976559 -59.6875 513.0625 C-87.30723058 482.63042604 -98.48510541 446.32059475 -97.23095703 405.70507812 C-96.62202623 395.93643774 -94.45746086 386.45000584 -92 377 C-91.81840332 376.28634277 -91.63680664 375.57268555 -91.44970703 374.83740234 C-86.48556018 356.0919064 -76.56439722 338.4117402 -65 323 C-61.5527338 323.45002334 -58.18623041 323.9561142 -54.80078125 324.75390625 C-34.32992206 329.49911101 -12.94543339 328.37982194 7 322 C8.18207031 321.62746094 9.36414063 321.25492188 10.58203125 320.87109375 C40.67687116 310.2210086 66.51382935 287.66990595 80.35571289 258.83178711 C81.25435124 256.89511922 82.13109604 254.95016106 83 253 C83.48210937 251.94554687 83.96421875 250.89109375 84.4609375 249.8046875 C97.10213996 219.84886833 96.09045363 183.29557527 83.9765625 153.46875 C78.65995739 141.1149902 71.54245016 130.33636469 63 120 C62.3709375 119.22914063 61.741875 118.45828125 61.09375 117.6640625 C57.11737673 112.94663784 52.77124338 108.90156858 48 105 C46.59621094 103.82244141 46.59621094 103.82244141 45.1640625 102.62109375 C37.06737411 95.9938611 28.53862331 91.24895601 19 87 C17.39705078 86.27490234 17.39705078 86.27490234 15.76171875 85.53515625 C1.1758699 79.43764129 -13.25294437 77.62989458 -28.9375 77.625 C-30.24058105 77.62330811 -31.54366211 77.62161621 -32.88623047 77.61987305 C-40.77715825 77.71094931 -48.26849742 78.43065105 -56 80 C-57.22589844 80.2371875 -58.45179688 80.474375 -59.71484375 80.71875 C-81.45451459 85.98897323 -99.96151514 97.6878958 -116 113 C-116.5878125 113.52464844 -117.175625 114.04929687 -117.78125 114.58984375 C-139.78293154 134.98291178 -151.04547063 165.74120771 -152.31640625 195.13671875 C-152.74276946 211.37150578 -151.88354742 228.4636759 -146.30078125 243.87109375 C-144.56588051 248.88420163 -145.23607953 251.38040881 -147.49609375 256.171875 C-148.13585073 257.36855726 -148.78348351 258.56105095 -149.4375 259.75 C-149.78876953 260.40194336 -150.14003906 261.05388672 -150.50195312 261.72558594 C-152.41158922 265.23325084 -154.39358415 268.68377836 -156.47265625 272.09375 C-170.42621095 294.98634294 -179.76225318 321.01711924 -181 348 C-185.63070159 343.87601187 -188.0568473 337.95841129 -190.9375 332.5625 C-191.26914154 331.94253143 -191.60078308 331.32256287 -191.94247437 330.68380737 C-223.30322132 271.78114981 -240.94012312 206.63184049 -221.04296875 141.17578125 C-203.95758121 87.99972293 -167.3828991 44.64438143 -117.96264648 18.74829102 C-81.8773459 0.39367053 -40.05369023 -6.76065472 0 0 Z " fill="#102749" transform="translate(727,460)"/>
<path d="M0 0 C0.9047406 0.15600677 1.8094812 0.31201355 2.74163818 0.4727478 C26.82699358 4.64554772 49.61850718 10.86283431 72.75 18.6875 C73.77303223 19.03184082 74.79606445 19.37618164 75.85009766 19.73095703 C128.79825533 37.72802393 179.88865185 67.35545219 221.9934082 104.20141602 C223.30588278 105.31177498 224.64502985 106.39074468 225.99682617 107.45288086 C234.18265057 113.92569605 241.55031232 121.1155116 248.92211914 128.48901367 C251.06563118 130.62812475 253.22470094 132.7506677 255.38476562 134.87304688 C268.70413465 148.08493328 268.70413465 148.08493328 272.75 156.6875 C273.20375 157.63625 273.6575 158.585 274.125 159.5625 C276.32147468 170.54487338 274.17564912 179.23742609 268.50390625 188.78515625 C263.99982446 194.86633492 256.34638245 198.55713039 249.11328125 200.3359375 C241.18155328 201.51586397 234.39421442 200.61285926 227.5546875 196.3046875 C220.77881613 191.18258812 214.9173194 185.00145824 208.99023438 178.94287109 C205.01565884 174.88757939 200.95419049 171.03922305 196.64794922 167.33813477 C194.29574474 165.29243699 192.0403574 163.15729023 189.78173828 161.00952148 C183.02407089 154.59740531 176.00395626 148.70165901 168.58154297 143.07763672 C166.68279898 141.63649459 164.79638385 140.18013108 162.91015625 138.72265625 C153.51445796 131.51281525 143.81572836 124.92415657 133.75 118.6875 C133.1111084 118.28885742 132.4722168 117.89021484 131.81396484 117.47949219 C81.74062615 86.45284967 25.16923992 66.87181767 -33.25 59.6875 C-34.50659424 59.51613525 -35.76318848 59.34477051 -37.05786133 59.16821289 C-50.92250501 57.39683667 -64.78643208 57.34595866 -78.74438477 57.37182617 C-81.44409932 57.37644024 -84.14336144 57.36958418 -86.84301758 57.35131836 C-110.40337225 57.19367621 -133.30787308 58.98227982 -156.4375 63.5 C-157.10311951 63.62822144 -157.76873901 63.75644287 -158.45452881 63.8885498 C-195.48749183 71.04183777 -231.76584569 83.04265186 -265.20068359 100.62011719 C-267.49352671 101.81434045 -269.80253652 102.97362406 -272.11328125 104.1328125 C-301.73679094 119.13100123 -329.31230572 138.46602387 -353.55078125 161.171875 C-355.9338108 163.39281715 -358.36054358 165.54362072 -360.8125 167.6875 C-364.26416039 170.76373629 -367.53710008 173.96654768 -370.78125 177.26171875 C-372.01959595 178.51758789 -372.01959595 178.51758789 -373.28295898 179.79882812 C-374.93295196 181.47923791 -376.57605214 183.16645191 -378.21118164 184.86132812 C-386.28028647 193.08517375 -395.25277131 200.49233468 -407.25 201.0625 C-416.45573215 200.64239714 -425.24198916 196.16580101 -431.5 189.5 C-437.90265366 181.365481 -439.28387583 172.84756374 -438.25 162.6875 C-434.40469524 141.96734544 -406.59231409 119.96988217 -390.82421875 107.703125 C-388.41079956 105.81340678 -386.09541341 103.83740928 -383.78540039 101.82348633 C-362.36263563 83.24181551 -337.73612779 67.86067136 -313.25 53.6875 C-312.54343262 53.27371094 -311.83686523 52.85992187 -311.10888672 52.43359375 C-255.50072976 19.97919672 -192.17680077 1.16021562 -128.25 -5.3125 C-127.41855469 -5.40168701 -126.58710937 -5.49087402 -125.73046875 -5.58276367 C-83.82418712 -9.9886082 -41.41433095 -7.15477323 0 0 Z " fill="#8CBCE6" transform="translate(779.25,177.3125)"/>
<path d="M0 0 C1.68544418 0.00223572 1.68544418 0.00223572 3.40493774 0.0045166 C18.80099839 0.04122509 33.92677116 0.34425538 49.14892578 2.86816406 C51.96762483 3.32759737 54.7899856 3.71112682 57.62109375 4.0859375 C101.09146673 10.17019527 143.76293877 27.12191803 180.875 50.3125 C181.52533203 50.71887695 182.17566406 51.12525391 182.84570312 51.54394531 C202.68223651 64.08555823 220.85199849 79.20201675 237.875 95.3125 C238.4328418 95.83634277 238.99068359 96.36018555 239.56542969 96.89990234 C246.45698944 103.41031744 252.75745259 109.61819915 256.875 118.3125 C257.24496094 119.09367187 257.61492188 119.87484375 257.99609375 120.6796875 C260.69121742 128.75308017 259.45075829 138.13141009 256.1875 145.84765625 C251.94313162 153.818479 245.51251931 159.4948039 236.875 162.3125 C228.76009984 163.65142877 219.63932982 163.62440708 212.44140625 159.30078125 C206.88552429 154.99645261 201.86276855 150.12138224 196.83496094 145.22070312 C186.9718521 135.61805505 176.90924353 126.55110734 165.875 118.3125 C165.33085449 117.90080566 164.78670898 117.48911133 164.22607422 117.06494141 C118.39386978 82.5300813 61.05193928 62.78110431 3.63696289 63.05175781 C0.94329259 63.06247695 -1.74970908 63.05179033 -4.44335938 63.0390625 C-19.94156857 63.02536182 -35.05497156 64.37658466 -50.25 67.5 C-51.82068237 67.82145996 -51.82068237 67.82145996 -53.4230957 68.14941406 C-72.75800549 72.24369522 -91.0663729 78.31866601 -109.125 86.3125 C-109.94307129 86.67069824 -110.76114258 87.02889648 -111.60400391 87.39794922 C-133.55798059 97.09462176 -153.70105628 109.95921356 -172.125 125.3125 C-172.66125 125.75851562 -173.1975 126.20453125 -173.75 126.6640625 C-180.77185644 132.52605873 -187.48437879 138.53076957 -193.89453125 145.06640625 C-203.19403892 154.43105933 -212.64423909 162.50583375 -226.375 162.75 C-235.34278172 162.60932891 -241.32555176 160.09982261 -247.9375 154.125 C-254.19342818 147.15749705 -256.58050772 140.72204441 -256.8125 131.4375 C-256.84400146 130.71908936 -256.87550293 130.00067871 -256.90795898 129.26049805 C-256.79924428 118.05038747 -250.14764977 109.68713776 -242.585495 102.11444092 C-241.45111023 101.00253997 -240.31194821 99.89549327 -239.16821289 98.79321289 C-237.44340105 97.13068795 -235.74082671 95.44780822 -234.04101562 93.75976562 C-227.38180949 87.19437149 -220.47516492 81.10477679 -213.125 75.3125 C-211.68866498 74.15121122 -210.25245832 72.98976366 -208.81640625 71.828125 C-192.62425226 58.94412879 -175.42539165 47.9518639 -157.125 38.3125 C-156.46612793 37.96380859 -155.80725586 37.61511719 -155.12841797 37.25585938 C-106.86670313 11.90725093 -54.34797707 -0.17867553 0 0 Z " fill="#8CBDE5" transform="translate(696.125,307.6875)"/>
<path d="M0 0 C-1.8553224 8.52658804 -3.72436337 17.0420341 -5.875 25.5 C-10.59706392 44.11646523 -14.64800731 62.87365711 -18.49609375 81.6875 C-20.68126696 92.35854779 -22.97973885 103.00509057 -25.27978516 113.65185547 C-25.99934498 116.99695493 -26.70962758 120.34391501 -27.41796875 123.69140625 C-27.86189534 125.77345537 -28.30590176 127.85548748 -28.75 129.9375 C-28.94859619 130.8847998 -29.14719238 131.83209961 -29.35180664 132.80810547 C-30.26101711 137.04537671 -31.18072345 141.03893879 -33 145 C-40.08948201 139.22376502 -46.39329861 132.68354518 -52.8125 126.1875 C-55.06614488 123.90729329 -57.32306859 121.63040587 -59.58203125 119.35546875 C-60.09659378 118.83260788 -60.61115631 118.30974701 -61.14131165 117.77104187 C-63.80906769 115.04129357 -63.80906769 115.04129357 -67 113 C-67.24363281 113.57234375 -67.48726562 114.1446875 -67.73828125 114.734375 C-69.22517298 117.40433538 -70.98083908 119.13829007 -73.1875 121.25 C-76.65422406 124.63956327 -79.90896497 128.1021258 -83.0625 131.78125 C-84.98553803 133.98343872 -86.95987838 136.13215043 -88.94897461 138.2746582 C-94.07365904 143.80117545 -98.99921439 149.43514237 -103.68359375 155.34472656 C-104.63688633 156.54341419 -105.59597472 157.73750005 -106.55859375 158.92871094 C-127.22588887 184.52417747 -143.93724544 212.56488547 -151 245 C-151.17877686 245.80727539 -151.35755371 246.61455078 -151.54174805 247.44628906 C-153.23726691 256.09411015 -153.2719797 264.59772388 -153.20581055 273.37158203 C-153.18758256 275.86371191 -153.18530153 278.35546659 -153.18554688 280.84765625 C-153.16416019 290.27672847 -152.83412742 299.60286826 -152 309 C-156.77146067 305.13855567 -160.88608336 301.13003301 -164.6875 296.3125 C-165.19369873 295.673125 -165.69989746 295.03375 -166.22143555 294.375 C-175.86695394 281.92878598 -183.94226754 268.53175147 -190 254 C-190.39703125 253.08476563 -190.7940625 252.16953125 -191.203125 251.2265625 C-202.61047562 222.87844492 -198.65416269 188.93952877 -187.04345703 161.36767578 C-178.40570747 141.76802786 -166.10383076 125.16734513 -152.47802734 108.78662109 C-151.11247269 107.13595558 -149.76487674 105.47293788 -148.42578125 103.80078125 C-144.70235178 99.16703965 -140.93173538 94.78207395 -136.65625 90.65234375 C-134.96233581 88.96242464 -133.4225168 87.19940094 -131.875 85.375 C-126.60881234 79.24927366 -120.74690715 73.66912946 -115 68 C-116.35428461 64.89587239 -117.77134253 63.08524276 -120.375 60.9375 C-123.95105314 57.91210722 -127.43291536 54.80121024 -130.875 51.625 C-136.21479655 46.71021113 -141.59492856 41.84303967 -147 37 C-144.78302985 34.78302985 -143.80153326 34.51458937 -140.828125 33.7734375 C-131.1446867 31.34919 -121.47852626 28.87482472 -111.84133911 26.27218628 C-95.02125089 21.73391918 -78.13190732 17.51293862 -61.2074585 13.38342285 C-57.02763311 12.36293733 -52.84872827 11.33868904 -48.66985703 10.31430435 C-45.28104066 9.48363865 -41.891935 8.65421185 -38.50201416 7.82806396 C-32.24397755 6.30094689 -25.99356127 4.74998133 -19.75683594 3.13769531 C-18.08329544 2.70784836 -18.08329544 2.70784836 -16.37594604 2.26931763 C-14.30259272 1.73480086 -12.23094857 1.19359255 -10.16140747 0.64450073 C-9.2546225 0.41135162 -8.34783752 0.17820251 -7.41357422 -0.06201172 C-6.23563797 -0.37173416 -6.23563797 -0.37173416 -5.03390503 -0.68771362 C-3 -1 -3 -1 0 0 Z " fill="#8DBCE6" transform="translate(764,599)"/>
<path d="M0 0 C2.16892578 1.90537105 4.05864246 3.85428903 6 6 C6.495 -0.435 6.495 -0.435 7 -7 C15.25 -7 23.5 -7 32 -7 C32 28.97 32 64.94 32 102 C23.75 102 15.5 102 7 102 C6.67 97.71 6.34 93.42 6 89 C5.175 90.051875 4.35 91.10375 3.5 92.1875 C-2.78050312 99.45116599 -11.06457453 103.18104217 -20.56787109 104.30322266 C-23.15733584 104.43585014 -25.7198938 104.46786798 -28.3125 104.4375 C-29.22749268 104.42992676 -30.14248535 104.42235352 -31.08520508 104.41455078 C-46.4427807 104.04318235 -59.00002905 98.10880248 -69.6015625 87.0390625 C-72.36912816 83.53227734 -74.48022209 79.97319569 -76.5 76 C-76.82629395 75.3601416 -77.15258789 74.7202832 -77.48876953 74.06103516 C-81.49548953 65.60619493 -82.3724908 56.88586592 -82.3125 47.625 C-82.30686035 46.7067041 -82.3012207 45.7884082 -82.29541016 44.84228516 C-82.02157444 29.49392905 -77.02203267 17.46394426 -66.41015625 6.28515625 C-48.04206342 -11.13029643 -20.91464379 -14.98523447 0 0 Z " fill="#0D2446" transform="translate(704,1076)"/>
<path d="M0 0 C3.30483944 2.54308567 5.6837547 5.38035158 8.203125 8.6953125 C8.533125 4.0753125 8.863125 -0.5446875 9.203125 -5.3046875 C17.453125 -5.3046875 25.703125 -5.3046875 34.203125 -5.3046875 C34.203125 30.6653125 34.203125 66.6353125 34.203125 103.6953125 C25.953125 103.6953125 17.703125 103.6953125 9.203125 103.6953125 C8.873125 99.7353125 8.543125 95.7753125 8.203125 91.6953125 C7.089375 92.9121875 5.975625 94.1290625 4.828125 95.3828125 C-4.97490239 105.20325202 -15.66057262 106.05219557 -28.85668945 106.07592773 C-42.81270174 105.85805322 -53.48071028 101.32273472 -63.796875 91.6953125 C-76.9909995 77.0522492 -79.99444212 59.30942685 -79.03515625 40.25732422 C-77.85072585 27.52227028 -71.12101298 14.99534718 -61.796875 6.31640625 C-54.49197867 0.39544536 -46.78246758 -3.5959027 -37.796875 -6.3046875 C-37.16652344 -6.49804688 -36.53617187 -6.69140625 -35.88671875 -6.890625 C-23.48433364 -9.34791999 -10.54910688 -6.77184603 0 0 Z " fill="#0E2546" transform="translate(520.796875,1074.3046875)"/>
<path d="M0 0 C2.59124429 2.48962687 4.84657996 5.12639643 7 8 C10.07623481 6.63053582 12.11580361 5.04555388 14.5 2.6875 C23.65908742 -5.54364986 35.16166129 -7.51674816 47.078125 -7.2734375 C57.97351391 -6.51379883 67.64463219 -1.8384816 75.03515625 6.21875 C82.23540638 15.63563765 85.13402658 27.47082082 85.11352539 39.17700195 C85.11367142 39.87998917 85.11381744 40.58297638 85.1139679 41.30726624 C85.11327441 43.61763659 85.10550857 45.92792508 85.09765625 48.23828125 C85.09579006 49.84539241 85.09436711 51.45250415 85.09336853 53.05961609 C85.08955915 57.27968937 85.07974239 61.49972797 85.06866455 65.7197876 C85.05841643 70.02998384 85.05386363 74.3401857 85.04882812 78.65039062 C85.03811866 87.10027807 85.0205347 95.55013072 85 104 C76.42 104 67.84 104 59 104 C58.99589111 101.87127441 58.99178223 99.74254883 58.98754883 97.54931641 C58.9702849 90.48442411 58.92567304 83.4198902 58.86790943 76.35521889 C58.83374401 72.07544694 58.80854584 67.796028 58.80444336 63.51611328 C58.80013779 59.37901994 58.77149034 55.24272149 58.72656822 51.10587692 C58.71366483 49.53443421 58.70925995 47.96289601 58.71384621 46.39140701 C58.73361132 37.55547982 58.66353255 29.33088534 53 22 C50.70192457 20.15531388 48.74369062 19.19065819 46 18 C45.34 17.67 44.68 17.34 44 17 C36.32650066 16.04081258 30.57597146 16.77058131 24.1328125 21.15234375 C19.34124738 25.30327837 17.01835581 29.80834673 16 36 C15.88724888 38.26816898 15.82416836 40.53903625 15.79467773 42.80981445 C15.78477814 43.47378738 15.77487854 44.13776031 15.76467896 44.82185364 C15.73325574 47.00229405 15.70838301 49.18275619 15.68359375 51.36328125 C15.66300762 52.88071742 15.64201073 54.39814807 15.62062073 55.91557312 C15.56557127 59.89884963 15.51608688 63.88217641 15.46777344 67.86553955 C15.41743293 71.93449347 15.36181253 76.00337486 15.30664062 80.07226562 C15.19926867 88.04811728 15.09826591 96.02403095 15 104 C6.75 104 -1.5 104 -10 104 C-10.0093457 101.83050781 -10.01869141 99.66101562 -10.02832031 97.42578125 C-10.06217123 90.23716426 -10.11776502 83.04883189 -10.18390274 75.86044312 C-10.22331905 71.50444081 -10.25553602 67.14863889 -10.27099609 62.79248047 C-10.28620147 58.58415607 -10.32071502 54.37638276 -10.36830902 50.16830444 C-10.38308301 48.56729945 -10.39103872 46.96621576 -10.39188385 45.36514282 C-10.2996349 33.59472488 -10.2996349 33.59472488 -15 23 C-16.95336668 21.11976279 -16.95336668 21.11976279 -19.125 20.0625 C-19.80820312 19.68222656 -20.49140625 19.30195312 -21.1953125 18.91015625 C-26.59122973 16.18883869 -32.41934211 15.98741191 -38.29296875 17.6484375 C-44.04522206 20.25197188 -48.29837598 24.49829689 -51.05673218 30.17460632 C-52.19914162 33.59649388 -52.28039492 36.47705689 -52.31884766 40.08520508 C-52.32889328 40.77843872 -52.3389389 41.47167236 -52.34928894 42.18591309 C-52.38003363 44.46377783 -52.39713145 46.74152551 -52.4140625 49.01953125 C-52.4327812 50.6042328 -52.45235514 52.18892446 -52.4727478 53.77360535 C-52.524001 57.93441934 -52.56366305 62.09526562 -52.60089111 66.25622559 C-52.64097358 70.50618432 -52.69204654 74.75600952 -52.7421875 79.00585938 C-52.83886617 87.33715495 -52.92228025 95.66850597 -53 104 C-61.58 104 -70.16 104 -79 104 C-79 68.03 -79 32.06 -79 -5 C-70.75 -5 -62.5 -5 -54 -5 C-53.67 -1.37 -53.34 2.26 -53 6 C-51.700625 4.7625 -50.40125 3.525 -49.0625 2.25 C-35.14110077 -10.15629427 -15.34528227 -10.02293153 0 0 Z " fill="#0E2547" transform="translate(838,1074)"/>
<path d="M0 0 C0.75240967 0.00821777 1.50481934 0.01643555 2.2800293 0.02490234 C14.59011505 0.27278325 25.95939156 4.10617351 35.15625 12.671875 C41.625 19.62234043 41.625 19.62234043 41.625 24.25 C38.85956804 25.76012131 36.08683193 27.25630148 33.3125 28.75 C32.52681641 29.17925781 31.74113281 29.60851563 30.93164062 30.05078125 C29.7956543 30.65986328 29.7956543 30.65986328 28.63671875 31.28125 C27.94022217 31.65830078 27.24372559 32.03535156 26.52612305 32.42382812 C24.625 33.25 24.625 33.25 21.625 33.25 C20.92375 32.3425 20.2225 31.435 19.5 30.5 C15.59626224 25.61163996 10.73693769 23.60599287 4.5859375 22.90234375 C-2.237704 22.70762445 -7.09659118 23.28885655 -12.3125 28 C-13.94142957 31.44949791 -13.40714623 33.63748821 -12.375 37.25 C-6.97931755 43.54496286 2.85122906 45.08937951 10.57666016 47.00561523 C23.32310109 50.18158466 35.20532422 53.84086326 42.93359375 65.16796875 C46.66014442 72.04081134 46.65033332 79.65001026 45.625 87.25 C42.59945747 96.51906491 37.22209433 104.05389861 28.5 108.5625 C27.21484028 109.13971185 25.92374109 109.70403241 24.625 110.25 C23.3565625 110.8378125 23.3565625 110.8378125 22.0625 111.4375 C8.75836692 115.87221103 -10.78371661 115.3832899 -23.375 109.25 C-31.442366 104.6852719 -38.18625196 98.62749608 -42.375 90.25 C-42.375 89.26 -42.375 88.27 -42.375 87.25 C-40.63085938 85.8996582 -40.63085938 85.8996582 -38.21875 84.55078125 C-37.36152344 84.06416016 -36.50429688 83.57753906 -35.62109375 83.07617188 C-34.71488281 82.57666016 -33.80867188 82.07714844 -32.875 81.5625 C-31.96878906 81.05138672 -31.06257813 80.54027344 -30.12890625 80.01367188 C-27.88306943 78.74891114 -25.63183911 77.49498921 -23.375 76.25 C-21.76236688 77.83187368 -20.28759764 79.36290438 -18.90234375 81.15234375 C-14.53955754 86.73713887 -10.31232123 89.64207861 -3.375 91.25 C3.59767412 92.09487834 9.34078414 91.39210793 15.625 88.25 C18.40234572 85.81982249 18.58886401 84.49843496 19.125 80.8125 C18.47518853 76.18259326 17.33635227 75.05244967 13.625 72.25 C8.7366347 69.26202964 3.42512975 67.90392966 -2.08447266 66.54760742 C-16.87578524 62.90588426 -28.94246321 58.62505933 -37.3125 45.125 C-40.07714122 37.63814551 -39.37969107 27.63605027 -36.48828125 20.27734375 C-31.22110724 10.68554265 -22.28588238 4.60370632 -12.140625 1.1484375 C-7.97347749 0.15420106 -4.26010721 -0.05648867 0 0 Z " fill="#0C2345" transform="translate(385.375,1066.75)"/>
<path d="M0 0 C0 9.9 0 19.8 0 30 C8.91 30 17.82 30 27 30 C27 37.92 27 45.84 27 54 C18.09 54 9.18 54 0 54 C0.07397486 61.74185162 0.15678884 69.48254292 0.26245117 77.22387695 C0.29570325 79.85727936 0.32373424 82.49075309 0.34643555 85.12426758 C0.37997529 88.90997711 0.4322932 92.69503289 0.48828125 96.48046875 C0.49467117 97.65772018 0.5010611 98.83497162 0.50764465 100.04789734 C0.53733589 101.69904289 0.53733589 101.69904289 0.56762695 103.38354492 C0.58428154 104.83249397 0.58428154 104.83249397 0.60127258 106.31071472 C1.07569598 109.51054449 2.11151447 111.39189198 4 114 C8.90140415 117.35244409 13.17390716 117.3744482 18.875 117.1875 C22.896875 117.0946875 22.896875 117.0946875 27 117 C27 124.26 27 131.52 27 139 C11.9940538 141.1437066 -3.15298864 141.94588969 -16.0234375 132.8046875 C-21.40060216 127.89510237 -24.67823712 120.11424527 -25.24050903 112.92471313 C-25.23606781 111.83661346 -25.23162659 110.74851379 -25.22705078 109.62744141 C-25.22689972 108.38660797 -25.22674866 107.14577454 -25.22659302 105.86734009 C-25.21638225 104.52874589 -25.2059503 103.19015337 -25.1953125 101.8515625 C-25.19157813 100.47008469 -25.18873316 99.08860422 -25.18673706 97.7071228 C-25.17913392 94.08706229 -25.15951437 90.46716457 -25.1373291 86.84716797 C-25.11679878 83.14683229 -25.10772004 79.44647008 -25.09765625 75.74609375 C-25.07626496 68.49731335 -25.04111033 61.24870031 -25 54 C-31.93 54 -38.86 54 -46 54 C-46 46.08 -46 38.16 -46 30 C-39.07 30 -32.14 30 -25 30 C-25 22.08 -25 14.16 -25 6 C-20.2046875 4.515 -20.2046875 4.515 -15.3125 3 C-14.31387939 2.68675781 -13.31525879 2.37351562 -12.28637695 2.05078125 C-11.48675537 1.80714844 -10.68713379 1.56351563 -9.86328125 1.3125 C-9.05157471 1.06113281 -8.23986816 0.80976562 -7.40356445 0.55078125 C-5 0 -5 0 0 0 Z " fill="#0C2345" transform="translate(980,1039)"/>
<path d="M0 0 C8.25 0 16.5 0 25 0 C25 50.82 25 101.64 25 154 C16.75 154 8.5 154 0 154 C0 103.18 0 52.36 0 0 Z " fill="#0C2344" transform="translate(578,1024)"/>
<path d="M0 0 C8.28803479 5.22109681 12.65895592 13.00511349 15.41015625 22.17578125 C15.49265625 23.00078125 15.57515625 23.82578125 15.66015625 24.67578125 C15.72332031 25.28421875 15.78648437 25.89265625 15.8515625 26.51953125 C16.40640552 36.39931667 13.1357242 46.21779875 6.7265625 53.734375 C-1.71591594 61.66615531 -10.1096221 63.23494844 -21.2734375 63.02734375 C-26.74460263 62.72585329 -30.84899666 60.72600017 -35.33984375 57.67578125 C-36.24734375 57.11890625 -37.15484375 56.56203125 -38.08984375 55.98828125 C-46.09789904 47.75777998 -48.75980674 38.3485424 -48.70336914 27.14868164 C-48.47650594 17.7908266 -45.58171396 11.17305279 -39.12890625 4.36328125 C-28.62988884 -5.53972207 -12.66859961 -6.05296482 0 0 Z " fill="#FCFCFD" transform="translate(695.33984375,1094.32421875)"/>
<path d="M0 0 C7.8489594 4.57137196 13.60659887 10.903273 16.4375 19.5625 C18.74967719 29.52137749 18.05603995 39.37494869 13.4375 48.5625 C8.07536085 56.21065918 1.81295351 61.77515184 -7.5625 63.5625 C-24.80775503 64.70098545 -24.80775503 64.70098545 -31.5625 59.5625 C-32.24699219 59.07652344 -32.93148438 58.59054687 -33.63671875 58.08984375 C-40.74863312 52.52914176 -44.10162694 45.10570561 -46.5625 36.5625 C-47.77517532 26.01860719 -46.25000165 16.80903767 -39.80078125 8.21484375 C-29.34012301 -3.13698619 -14.18281139 -6.43529338 0 0 Z " fill="#FBFCFD" transform="translate(512.5625,1093.4375)"/>
<path d="M0 0 C8.25 0 16.5 0 25 0 C25 35.97 25 71.94 25 109 C16.75 109 8.5 109 0 109 C0 73.03 0 37.06 0 0 Z " fill="#092144" transform="translate(1025,1069)"/>
<path d="M0 0 C4.85857844 2.29678253 7.63468979 5.17840611 10 10 C10.9021605 15.64610559 10.24179585 20.19319926 7 25 C1.95662111 29.55134193 -1.38833778 30.51474998 -8.09375 30.48828125 C-12.95024299 29.67233821 -15.98351357 26.76657531 -19 23 C-20.94892318 17.15323045 -20.99344445 11.06047738 -18.3125 5.5 C-12.87371184 -0.37977098 -7.80294563 -1.02126788 0 0 Z " fill="#0D2344" transform="translate(1043,1025)"/>
<path d="M0 0 C8.25 0 16.5 0 25 0 C25 35.97 25 71.94 25 109 C16.75 109 8.5 109 0 109 C0 73.03 0 37.06 0 0 Z M1 2 C0.97745147 15.54264475 0.95908636 29.08527713 0.94818783 42.62793636 C0.94295838 48.91562024 0.93585961 55.20329066 0.92456055 61.4909668 C0.91373386 67.55337723 0.90772363 73.61577469 0.90512276 79.67819405 C0.90326811 81.99676277 0.89964675 84.31533074 0.89426994 86.63389397 C0.88706242 89.86914508 0.88600894 93.10434183 0.88647461 96.33959961 C0.88287933 97.30848114 0.87928406 98.27736267 0.87557983 99.27560425 C0.8769545 100.15205093 0.87832916 101.02849762 0.87974548 101.9315033 C0.87882369 102.69751327 0.8779019 103.46352324 0.87695217 104.25274563 C0.81013209 106.02869406 0.81013209 106.02869406 2 107 C8.93 107 15.86 107 23 107 C23 72.35 23 37.7 23 2 C15.74 2 8.48 2 1 2 Z " fill="#1F3149" transform="translate(1025,1069)"/>
<path d="M0 0 C0.66 0.33 1.32 0.66 2 1 C-4.82991287 8.79427656 -12.02123197 16.14294645 -19.375 23.4375 C-20.46508115 24.52254801 -21.55492613 25.60783334 -22.64453125 26.69335938 C-24.62795245 28.66870213 -26.61296575 30.64239168 -28.59912109 32.61499023 C-30.40276392 34.40671149 -32.20399557 36.20063226 -34 38 C-32.49676544 32.99234987 -29.53895883 29.9885554 -26 26.3125 C-25.09677002 25.35911743 -25.09677002 25.35911743 -24.17529297 24.38647461 C-16.27578977 16.10287078 -8.13826491 8.04796323 0 0 Z " fill="#97BEDF" transform="translate(380,292)"/>
<path d="M0 0 C-1.48653506 3.46629835 -3.45722351 5.69022036 -6.1328125 8.328125 C-7.34130859 9.52695312 -7.34130859 9.52695312 -8.57421875 10.75 C-9.41597656 11.575 -10.25773438 12.4 -11.125 13.25 C-11.97449219 14.09046875 -12.82398438 14.9309375 -13.69921875 15.796875 C-15.79504923 17.86915683 -17.89540713 19.93662393 -20 22 C-20.66 21.34 -21.32 20.68 -22 20 C-19.19469153 17.1453424 -16.38292304 14.29722769 -13.56494141 11.45507812 C-12.60675044 10.48681462 -11.65036018 9.51676574 -10.69580078 8.54492188 C-9.3253618 7.1502903 -7.94793633 5.76253479 -6.5703125 4.375 C-5.74289551 3.53710938 -4.91547852 2.69921875 -4.06298828 1.8359375 C-2 0 -2 0 0 0 Z " fill="#1C304C" transform="translate(570,506)"/>
<path d="M0 0 C0.66 0 1.32 0 2 0 C0.59155282 3.21524305 -1.10344786 5.32183868 -3.625 7.75 C-4.57246094 8.67039062 -4.57246094 8.67039062 -5.5390625 9.609375 C-6.02117188 10.06828125 -6.50328125 10.5271875 -7 11 C-7.66 10.67 -8.32 10.34 -9 10 C-7.8758824 8.70756532 -6.75067408 7.41607925 -5.625 6.125 C-4.99851562 5.40570312 -4.37203125 4.68640625 -3.7265625 3.9453125 C-2.52573166 2.5923402 -1.2791655 1.2791655 0 0 Z " fill="#1C2E4A" transform="translate(641,1079)"/>
<path d="M0 0 C-1.44253657 3.36591866 -3.33264727 5.51047079 -6 8 C-6.99 7.67 -7.98 7.34 -9 7 C-7.88121617 5.82737096 -6.75476949 4.66204862 -5.625 3.5 C-4.68527344 2.52546875 -4.68527344 2.52546875 -3.7265625 1.53125 C-2 0 -2 0 0 0 Z " fill="#22354F" transform="translate(463,1079)"/>
<path d="M0 0 C2.09350689 3.4019487 2.17942163 6.05272412 2 10 C0.68 8.68 -0.64 7.36 -2 6 C-1.34 6 -0.68 6 0 6 C0 4.02 0 2.04 0 0 Z " fill="#9BBDD9" transform="translate(610,898)"/>
<path d="M0 0 C0 3 0 3 -2.5 5.6875 C-3.325 6.450625 -4.15 7.21375 -5 8 C-5.99 7.67 -6.98 7.34 -8 7 C-5.36 4.69 -2.72 2.38 0 0 Z " fill="#9BBFDE" transform="translate(478,387)"/>
<rect x="250" y="970" width="900" height="300" fill="#FEFEFE"/>
</svg>
